<svg width="12" height="18" viewBox="0 0 12 18" fill="none" xmlns="http://www.w3.org/2000/svg">
<path d="M5.95161 18C5.77538 18 5.61612 17.9152 5.54652 17.7843C5.32008 17.3581 0 7.31709 0 4.81188C0 2.15862 2.6699 0 5.95161 0C9.23338 0 11.9032 2.15862 11.9032 4.81188C11.9032 7.31709 6.58315 17.3581 6.35671 17.7843C6.28711 17.9152 6.12779 18 5.95161 18ZM5.95161 0.712871C3.15606 0.712871 0.88172 2.55168 0.88172 4.81188C0.88172 6.78841 4.68425 14.285 5.95161 16.7285C7.21898 14.285 11.0215 6.78841 11.0215 4.81188C11.0215 2.55168 8.74716 0.712871 5.95161 0.712871Z" fill="#1D479B"/>
<path d="M6.05647 7.46767C4.63796 7.46767 3.48389 6.3136 3.48389 4.89509C3.48389 3.47658 4.63796 2.32251 6.05647 2.32251C7.47498 2.32251 8.62905 3.47658 8.62905 4.89509C8.62905 6.3136 7.47498 7.46767 6.05647 7.46767ZM6.05647 3.03219C5.02925 3.03219 4.19356 3.86788 4.19356 4.89509C4.19356 5.9223 5.02925 6.75799 6.05647 6.75799C7.08368 6.75799 7.91937 5.9223 7.91937 4.89509C7.91937 3.86788 7.08368 3.03219 6.05647 3.03219Z" fill="#1D479B"/>
</svg>
