<svg width="268" height="40" viewBox="0 0 268 40" fill="none" xmlns="http://www.w3.org/2000/svg">
<path d="M44.4307 3.41406H45.7432V13.3672H44.4307V5.69727L39.5293 13.3672H38.21V3.41406H39.5293V11.084L44.4307 3.41406ZM53.9805 13.3672H52.7158V10.209H49.3184V13.3672H48.0469V5.9707H49.3184V9.17676H52.7158V5.9707H53.9805V13.3672ZM61.5137 6.99609H59.0322V13.3672H57.7676V6.99609H55.334V5.9707H61.5137V6.99609ZM65.2666 13.5039C64.264 13.5039 63.4482 13.1758 62.8193 12.5195C62.1904 11.8587 61.876 10.9769 61.876 9.87402V9.6416C61.876 8.90788 62.015 8.25391 62.293 7.67969C62.5755 7.10091 62.9674 6.64974 63.4688 6.32617C63.9746 5.99805 64.5215 5.83398 65.1094 5.83398C66.071 5.83398 66.8184 6.15072 67.3516 6.78418C67.8848 7.41764 68.1514 8.32454 68.1514 9.50488V10.0312H63.1406C63.1589 10.7604 63.3708 11.3506 63.7764 11.8018C64.1865 12.2484 64.7061 12.4717 65.335 12.4717C65.7816 12.4717 66.1598 12.3805 66.4697 12.1982C66.7796 12.016 67.0508 11.7744 67.2832 11.4736L68.0557 12.0752C67.4359 13.0277 66.5062 13.5039 65.2666 13.5039ZM65.1094 6.87305C64.599 6.87305 64.1706 7.0599 63.8242 7.43359C63.4779 7.80273 63.2637 8.32227 63.1816 8.99219H66.8867V8.89648C66.8503 8.25391 66.6771 7.75716 66.3672 7.40625C66.0573 7.05078 65.638 6.87305 65.1094 6.87305ZM75.8691 9.75098C75.8691 10.8766 75.6117 11.7835 75.0967 12.4717C74.5817 13.1598 73.8844 13.5039 73.0049 13.5039C72.1071 13.5039 71.4007 13.2191 70.8857 12.6494V16.2109H69.6211V5.9707H70.7764L70.8379 6.79102C71.3529 6.15299 72.0684 5.83398 72.9844 5.83398C73.873 5.83398 74.5749 6.16895 75.0898 6.83887C75.6094 7.50879 75.8691 8.44076 75.8691 9.63477V9.75098ZM74.6045 9.60742C74.6045 8.77344 74.4268 8.11491 74.0713 7.63184C73.7158 7.14876 73.2282 6.90723 72.6084 6.90723C71.8428 6.90723 71.2686 7.24674 70.8857 7.92578V11.46C71.264 12.1344 71.8428 12.4717 72.6221 12.4717C73.2282 12.4717 73.709 12.2324 74.0645 11.7539C74.4245 11.2708 74.6045 10.5553 74.6045 9.60742ZM83.5254 13.3672H82.2607V10.209H78.8633V13.3672H77.5918V5.9707H78.8633V9.17676H82.2607V5.9707H83.5254V13.3672ZM88.6318 13.5039C87.6292 13.5039 86.8135 13.1758 86.1846 12.5195C85.5557 11.8587 85.2412 10.9769 85.2412 9.87402V9.6416C85.2412 8.90788 85.3802 8.25391 85.6582 7.67969C85.9408 7.10091 86.3327 6.64974 86.834 6.32617C87.3398 5.99805 87.8867 5.83398 88.4746 5.83398C89.4362 5.83398 90.1836 6.15072 90.7168 6.78418C91.25 7.41764 91.5166 8.32454 91.5166 9.50488V10.0312H86.5059C86.5241 10.7604 86.736 11.3506 87.1416 11.8018C87.5518 12.2484 88.0713 12.4717 88.7002 12.4717C89.1468 12.4717 89.5251 12.3805 89.835 12.1982C90.1449 12.016 90.416 11.7744 90.6484 11.4736L91.4209 12.0752C90.8011 13.0277 89.8714 13.5039 88.6318 13.5039ZM88.4746 6.87305C87.9642 6.87305 87.5358 7.0599 87.1895 7.43359C86.8431 7.80273 86.6289 8.32227 86.5469 8.99219H90.252V8.89648C90.2155 8.25391 90.0423 7.75716 89.7324 7.40625C89.4225 7.05078 89.0033 6.87305 88.4746 6.87305ZM98.4004 6.99609H95.9189V13.3672H94.6543V6.99609H92.2207V5.9707H98.4004V6.99609ZM109.352 9.75098C109.352 10.8766 109.094 11.7835 108.579 12.4717C108.064 13.1598 107.367 13.5039 106.487 13.5039C105.59 13.5039 104.883 13.2191 104.368 12.6494V16.2109H103.104V5.9707H104.259L104.32 6.79102C104.835 6.15299 105.551 5.83398 106.467 5.83398C107.355 5.83398 108.057 6.16895 108.572 6.83887C109.092 7.50879 109.352 8.44076 109.352 9.63477V9.75098ZM108.087 9.60742C108.087 8.77344 107.909 8.11491 107.554 7.63184C107.198 7.14876 106.711 6.90723 106.091 6.90723C105.325 6.90723 104.751 7.24674 104.368 7.92578V11.46C104.746 12.1344 105.325 12.4717 106.104 12.4717C106.711 12.4717 107.191 12.2324 107.547 11.7539C107.907 11.2708 108.087 10.5553 108.087 9.60742ZM114.034 13.5039C113.032 13.5039 112.216 13.1758 111.587 12.5195C110.958 11.8587 110.644 10.9769 110.644 9.87402V9.6416C110.644 8.90788 110.783 8.25391 111.061 7.67969C111.343 7.10091 111.735 6.64974 112.236 6.32617C112.742 5.99805 113.289 5.83398 113.877 5.83398C114.839 5.83398 115.586 6.15072 116.119 6.78418C116.652 7.41764 116.919 8.32454 116.919 9.50488V10.0312H111.908C111.926 10.7604 112.138 11.3506 112.544 11.8018C112.954 12.2484 113.474 12.4717 114.103 12.4717C114.549 12.4717 114.927 12.3805 115.237 12.1982C115.547 12.016 115.818 11.7744 116.051 11.4736L116.823 12.0752C116.203 13.0277 115.274 13.5039 114.034 13.5039ZM113.877 6.87305C113.367 6.87305 112.938 7.0599 112.592 7.43359C112.245 7.80273 112.031 8.32227 111.949 8.99219H115.654V8.89648C115.618 8.25391 115.445 7.75716 115.135 7.40625C114.825 7.05078 114.406 6.87305 113.877 6.87305ZM119.77 5.9707V12.335H122.477V5.9707H123.741V12.335H126.441V5.9707H127.713V13.3672H118.498V5.9707H119.77ZM132.778 13.5039C131.776 13.5039 130.96 13.1758 130.331 12.5195C129.702 11.8587 129.388 10.9769 129.388 9.87402V9.6416C129.388 8.90788 129.527 8.25391 129.805 7.67969C130.087 7.10091 130.479 6.64974 130.98 6.32617C131.486 5.99805 132.033 5.83398 132.621 5.83398C133.583 5.83398 134.33 6.15072 134.863 6.78418C135.396 7.41764 135.663 8.32454 135.663 9.50488V10.0312H130.652C130.671 10.7604 130.882 11.3506 131.288 11.8018C131.698 12.2484 132.218 12.4717 132.847 12.4717C133.293 12.4717 133.672 12.3805 133.981 12.1982C134.291 12.016 134.562 11.7744 134.795 11.4736L135.567 12.0752C134.948 13.0277 134.018 13.5039 132.778 13.5039ZM132.621 6.87305C132.111 6.87305 131.682 7.0599 131.336 7.43359C130.99 7.80273 130.775 8.32227 130.693 8.99219H134.398V8.89648C134.362 8.25391 134.189 7.75716 133.879 7.40625C133.569 7.05078 133.15 6.87305 132.621 6.87305ZM143.176 13.3672H141.911V10.209H138.514V13.3672H137.242V5.9707H138.514V9.17676H141.911V5.9707H143.176V13.3672ZM149.998 5.9707H151.263V13.3672H149.998V7.97363L146.587 13.3672H145.322V5.9707H146.587V11.3711L149.998 5.9707ZM158.946 5.9707V13.3672H157.675V10.4893H155.768L154.024 13.3672H152.657L154.517 10.2979C154.043 10.1247 153.678 9.85807 153.423 9.49805C153.172 9.13346 153.047 8.70964 153.047 8.22656C153.047 7.55208 153.3 7.00977 153.806 6.59961C154.312 6.1849 154.988 5.97526 155.836 5.9707H158.946ZM154.318 8.24023C154.318 8.60026 154.441 8.89193 154.688 9.11523C154.934 9.33398 155.259 9.44564 155.665 9.4502H157.675V6.99609H155.856C155.387 6.99609 155.013 7.1123 154.735 7.34473C154.457 7.57259 154.318 7.87109 154.318 8.24023Z" fill="#555555"/>
<path d="M43.6514 28.7666H39.4814L38.5449 31.3643H37.1914L40.9922 21.4111H42.1406L45.9482 31.3643H44.6016L43.6514 28.7666ZM39.8779 27.6865H43.2617L41.5664 23.0312L39.8779 27.6865ZM51.8682 25.0137H48.457V31.3643H47.1855V23.9678H51.8682V25.0137ZM55.9014 31.501C54.8988 31.501 54.083 31.1729 53.4541 30.5166C52.8252 29.8558 52.5107 28.974 52.5107 27.8711V27.6387C52.5107 26.9049 52.6497 26.251 52.9277 25.6768C53.2103 25.098 53.6022 24.6468 54.1035 24.3232C54.6094 23.9951 55.1562 23.8311 55.7441 23.8311C56.7057 23.8311 57.4531 24.1478 57.9863 24.7812C58.5195 25.4147 58.7861 26.3216 58.7861 27.502V28.0283H53.7754C53.7936 28.7575 54.0055 29.3477 54.4111 29.7988C54.8213 30.2454 55.3408 30.4688 55.9697 30.4688C56.4163 30.4688 56.7946 30.3776 57.1045 30.1953C57.4144 30.013 57.6855 29.7715 57.918 29.4707L58.6904 30.0723C58.0706 31.0247 57.141 31.501 55.9014 31.501ZM55.7441 24.8701C55.2337 24.8701 54.8053 25.057 54.459 25.4307C54.1126 25.7998 53.8984 26.3193 53.8164 26.9893H57.5215V26.8936C57.485 26.251 57.3118 25.7542 57.002 25.4033C56.6921 25.0479 56.2728 24.8701 55.7441 24.8701ZM66.2988 31.3643H65.0342V28.2061H61.6367V31.3643H60.3652V23.9678H61.6367V27.1738H65.0342V23.9678H66.2988V31.3643ZM73.832 24.9932H71.3506V31.3643H70.0859V24.9932H67.6523V23.9678H73.832V24.9932ZM77.4824 30.4688C77.9336 30.4688 78.3278 30.332 78.665 30.0586C79.0023 29.7852 79.1891 29.4434 79.2256 29.0332H80.4219C80.3991 29.457 80.2533 29.8604 79.9844 30.2432C79.7155 30.626 79.3555 30.9313 78.9043 31.1592C78.4577 31.387 77.9837 31.501 77.4824 31.501C76.4753 31.501 75.6732 31.166 75.0762 30.4961C74.4837 29.8216 74.1875 28.901 74.1875 27.7344V27.5225C74.1875 26.8024 74.3197 26.1621 74.584 25.6016C74.8483 25.041 75.2266 24.6058 75.7188 24.2959C76.2155 23.986 76.8011 23.8311 77.4756 23.8311C78.305 23.8311 78.9932 24.0794 79.54 24.5762C80.0915 25.0729 80.3854 25.7178 80.4219 26.5107H79.2256C79.1891 26.0322 79.0068 25.6403 78.6787 25.335C78.3551 25.0251 77.9541 24.8701 77.4756 24.8701C76.833 24.8701 76.334 25.1025 75.9785 25.5674C75.6276 26.0277 75.4521 26.6953 75.4521 27.5703V27.8096C75.4521 28.6618 75.6276 29.318 75.9785 29.7783C76.3294 30.2386 76.8307 30.4688 77.4824 30.4688ZM87.3398 24.9932H84.8584V31.3643H83.5938V24.9932H81.1602V23.9678H87.3398V24.9932ZM88.6865 31.3643V23.9678H91.5713C92.5557 23.9678 93.3099 24.141 93.834 24.4873C94.3626 24.8291 94.627 25.3327 94.627 25.998C94.627 26.3398 94.5244 26.6497 94.3193 26.9277C94.1143 27.2012 93.8112 27.4108 93.4102 27.5566C93.8568 27.6615 94.2145 27.8665 94.4834 28.1719C94.7568 28.4772 94.8936 28.8418 94.8936 29.2656C94.8936 29.9447 94.6429 30.4642 94.1416 30.8242C93.6449 31.1842 92.9408 31.3643 92.0293 31.3643H88.6865ZM89.9512 28.1172V30.3457H92.043C92.5716 30.3457 92.9658 30.2477 93.2256 30.0518C93.4899 29.8558 93.6221 29.5801 93.6221 29.2246C93.6221 28.4863 93.0798 28.1172 91.9951 28.1172H89.9512ZM89.9512 27.1055H91.585C92.7699 27.1055 93.3623 26.7591 93.3623 26.0664C93.3623 25.3737 92.8018 25.016 91.6807 24.9932H89.9512V27.1055ZM96.2334 27.5977C96.2334 26.873 96.3747 26.2214 96.6572 25.6426C96.9443 25.0638 97.3408 24.6172 97.8467 24.3027C98.3571 23.9883 98.9382 23.8311 99.5898 23.8311C100.597 23.8311 101.41 24.1797 102.03 24.877C102.655 25.5742 102.967 26.5016 102.967 27.6592V27.748C102.967 28.4681 102.828 29.1152 102.55 29.6895C102.276 30.2591 101.882 30.7035 101.367 31.0225C100.857 31.3415 100.269 31.501 99.6035 31.501C98.6009 31.501 97.7874 31.1523 97.1631 30.4551C96.5433 29.7578 96.2334 28.835 96.2334 27.6865V27.5977ZM97.5049 27.748C97.5049 28.5684 97.694 29.2269 98.0723 29.7236C98.4551 30.2204 98.9655 30.4688 99.6035 30.4688C100.246 30.4688 100.757 30.2181 101.135 29.7168C101.513 29.2109 101.702 28.5046 101.702 27.5977C101.702 26.7865 101.508 26.1302 101.121 25.6289C100.738 25.123 100.228 24.8701 99.5898 24.8701C98.9655 24.8701 98.4619 25.1185 98.0791 25.6152C97.6963 26.112 97.5049 26.8229 97.5049 27.748ZM114.273 27.748C114.273 28.8737 114.016 29.7806 113.501 30.4688C112.986 31.1569 112.289 31.501 111.409 31.501C110.511 31.501 109.805 31.2161 109.29 30.6465V34.208H108.025V23.9678H109.181L109.242 24.7881C109.757 24.1501 110.473 23.8311 111.389 23.8311C112.277 23.8311 112.979 24.166 113.494 24.8359C114.014 25.5059 114.273 26.4378 114.273 27.6318V27.748ZM113.009 27.6045C113.009 26.7705 112.831 26.112 112.476 25.6289C112.12 25.1458 111.632 24.9043 111.013 24.9043C110.247 24.9043 109.673 25.2438 109.29 25.9229V29.457C109.668 30.1315 110.247 30.4688 111.026 30.4688C111.632 30.4688 112.113 30.2295 112.469 29.751C112.829 29.2679 113.009 28.5524 113.009 27.6045ZM118.956 31.501C117.953 31.501 117.138 31.1729 116.509 30.5166C115.88 29.8558 115.565 28.974 115.565 27.8711V27.6387C115.565 26.9049 115.704 26.251 115.982 25.6768C116.265 25.098 116.657 24.6468 117.158 24.3232C117.664 23.9951 118.211 23.8311 118.799 23.8311C119.76 23.8311 120.508 24.1478 121.041 24.7812C121.574 25.4147 121.841 26.3216 121.841 27.502V28.0283H116.83C116.848 28.7575 117.06 29.3477 117.466 29.7988C117.876 30.2454 118.396 30.4688 119.024 30.4688C119.471 30.4688 119.849 30.3776 120.159 30.1953C120.469 30.013 120.74 29.7715 120.973 29.4707L121.745 30.0723C121.125 31.0247 120.196 31.501 118.956 31.501ZM118.799 24.8701C118.288 24.8701 117.86 25.057 117.514 25.4307C117.167 25.7998 116.953 26.3193 116.871 26.9893H120.576V26.8936C120.54 26.251 120.367 25.7542 120.057 25.4033C119.747 25.0479 119.327 24.8701 118.799 24.8701ZM126.886 25.1025C126.694 25.0706 126.487 25.0547 126.264 25.0547C125.434 25.0547 124.871 25.4079 124.575 26.1143V31.3643H123.311V23.9678H124.541L124.562 24.8223C124.976 24.1615 125.564 23.8311 126.325 23.8311C126.571 23.8311 126.758 23.863 126.886 23.9268V25.1025ZM128.786 31.3643V24.9453H127.617V23.9678H128.786V23.209C128.786 22.416 128.998 21.8031 129.422 21.3701C129.846 20.9372 130.445 20.7207 131.22 20.7207C131.511 20.7207 131.801 20.7594 132.088 20.8369L132.02 21.8623C131.805 21.8213 131.577 21.8008 131.336 21.8008C130.926 21.8008 130.609 21.9215 130.386 22.1631C130.162 22.4001 130.051 22.7419 130.051 23.1885V23.9678H131.63V24.9453H130.051V31.3643H128.786ZM132.696 27.5977C132.696 26.873 132.838 26.2214 133.12 25.6426C133.407 25.0638 133.804 24.6172 134.31 24.3027C134.82 23.9883 135.401 23.8311 136.053 23.8311C137.06 23.8311 137.873 24.1797 138.493 24.877C139.118 25.5742 139.43 26.5016 139.43 27.6592V27.748C139.43 28.4681 139.291 29.1152 139.013 29.6895C138.739 30.2591 138.345 30.7035 137.83 31.0225C137.32 31.3415 136.732 31.501 136.066 31.501C135.064 31.501 134.25 31.1523 133.626 30.4551C133.006 29.7578 132.696 28.835 132.696 27.6865V27.5977ZM133.968 27.748C133.968 28.5684 134.157 29.2269 134.535 29.7236C134.918 30.2204 135.428 30.4688 136.066 30.4688C136.709 30.4688 137.219 30.2181 137.598 29.7168C137.976 29.2109 138.165 28.5046 138.165 27.5977C138.165 26.7865 137.971 26.1302 137.584 25.6289C137.201 25.123 136.691 24.8701 136.053 24.8701C135.428 24.8701 134.925 25.1185 134.542 25.6152C134.159 26.112 133.968 26.8229 133.968 27.748ZM144.591 25.1025C144.399 25.0706 144.192 25.0547 143.969 25.0547C143.139 25.0547 142.576 25.4079 142.28 26.1143V31.3643H141.016V23.9678H142.246L142.267 24.8223C142.681 24.1615 143.269 23.8311 144.03 23.8311C144.276 23.8311 144.463 23.863 144.591 23.9268V25.1025ZM146.949 23.9678L146.983 24.7881C147.526 24.1501 148.257 23.8311 149.178 23.8311C150.212 23.8311 150.916 24.2275 151.29 25.0205C151.536 24.665 151.855 24.3779 152.247 24.1592C152.644 23.9404 153.111 23.8311 153.648 23.8311C155.271 23.8311 156.096 24.6901 156.123 26.4082V31.3643H154.858V26.4834C154.858 25.9548 154.738 25.5605 154.496 25.3008C154.255 25.0365 153.849 24.9043 153.279 24.9043C152.81 24.9043 152.42 25.0456 152.11 25.3281C151.8 25.6061 151.62 25.9821 151.57 26.4561V31.3643H150.299V26.5176C150.299 25.4421 149.772 24.9043 148.72 24.9043C147.89 24.9043 147.323 25.2575 147.018 25.9639V31.3643H145.753V23.9678H146.949ZM162.604 31.3643C162.531 31.2184 162.471 30.9587 162.426 30.585C161.838 31.1956 161.136 31.501 160.32 31.501C159.591 31.501 158.992 31.2959 158.522 30.8857C158.058 30.471 157.825 29.9469 157.825 29.3135C157.825 28.5433 158.117 27.9463 158.7 27.5225C159.288 27.0941 160.113 26.8799 161.175 26.8799H162.405V26.2988C162.405 25.8568 162.273 25.5059 162.009 25.2461C161.744 24.9818 161.355 24.8496 160.84 24.8496C160.389 24.8496 160.01 24.9635 159.705 25.1914C159.4 25.4193 159.247 25.695 159.247 26.0186H157.976C157.976 25.6494 158.105 25.2939 158.365 24.9521C158.63 24.6058 158.985 24.3324 159.432 24.1318C159.883 23.9313 160.377 23.8311 160.915 23.8311C161.767 23.8311 162.435 24.0452 162.918 24.4736C163.401 24.8975 163.652 25.4831 163.67 26.2305V29.6348C163.67 30.3138 163.757 30.8538 163.93 31.2549V31.3643H162.604ZM160.505 30.4004C160.901 30.4004 161.277 30.2979 161.633 30.0928C161.988 29.8877 162.246 29.6211 162.405 29.293V27.7754H161.414C159.865 27.7754 159.09 28.2288 159.09 29.1357C159.09 29.5322 159.222 29.8421 159.486 30.0654C159.751 30.2887 160.09 30.4004 160.505 30.4004ZM166.849 23.9678L166.89 24.8975C167.455 24.1865 168.193 23.8311 169.104 23.8311C170.668 23.8311 171.456 24.7129 171.47 26.4766V31.3643H170.205V26.4697C170.201 25.9365 170.077 25.5423 169.836 25.2871C169.599 25.0319 169.228 24.9043 168.722 24.9043C168.312 24.9043 167.951 25.0137 167.642 25.2324C167.332 25.4512 167.09 25.7383 166.917 26.0938V31.3643H165.652V23.9678H166.849ZM176.344 30.4688C176.795 30.4688 177.189 30.332 177.526 30.0586C177.864 29.7852 178.05 29.4434 178.087 29.0332H179.283C179.26 29.457 179.115 29.8604 178.846 30.2432C178.577 30.626 178.217 30.9313 177.766 31.1592C177.319 31.387 176.845 31.501 176.344 31.501C175.337 31.501 174.535 31.166 173.938 30.4961C173.345 29.8216 173.049 28.901 173.049 27.7344V27.5225C173.049 26.8024 173.181 26.1621 173.445 25.6016C173.71 25.041 174.088 24.6058 174.58 24.2959C175.077 23.986 175.662 23.8311 176.337 23.8311C177.166 23.8311 177.854 24.0794 178.401 24.5762C178.953 25.0729 179.247 25.7178 179.283 26.5107H178.087C178.05 26.0322 177.868 25.6403 177.54 25.335C177.216 25.0251 176.815 24.8701 176.337 24.8701C175.694 24.8701 175.195 25.1025 174.84 25.5674C174.489 26.0277 174.313 26.6953 174.313 27.5703V27.8096C174.313 28.6618 174.489 29.318 174.84 29.7783C175.191 30.2386 175.692 30.4688 176.344 30.4688ZM183.774 31.501C182.772 31.501 181.956 31.1729 181.327 30.5166C180.698 29.8558 180.384 28.974 180.384 27.8711V27.6387C180.384 26.9049 180.523 26.251 180.801 25.6768C181.083 25.098 181.475 24.6468 181.977 24.3232C182.482 23.9951 183.029 23.8311 183.617 23.8311C184.579 23.8311 185.326 24.1478 185.859 24.7812C186.393 25.4147 186.659 26.3216 186.659 27.502V28.0283H181.648C181.667 28.7575 181.879 29.3477 182.284 29.7988C182.694 30.2454 183.214 30.4688 183.843 30.4688C184.289 30.4688 184.668 30.3776 184.978 30.1953C185.287 30.013 185.559 29.7715 185.791 29.4707L186.563 30.0723C185.944 31.0247 185.014 31.501 183.774 31.501ZM183.617 24.8701C183.107 24.8701 182.678 25.057 182.332 25.4307C181.986 25.7998 181.771 26.3193 181.689 26.9893H185.395V26.8936C185.358 26.251 185.185 25.7542 184.875 25.4033C184.565 25.0479 184.146 24.8701 183.617 24.8701ZM195.86 29.6895L198.376 23.9678H199.955V31.3643H198.69V25.9844L196.298 31.3643H195.423L192.982 25.8682V31.3643H191.718V23.9678H193.358L195.86 29.6895ZM206.559 31.3643C206.486 31.2184 206.426 30.9587 206.381 30.585C205.793 31.1956 205.091 31.501 204.275 31.501C203.546 31.501 202.947 31.2959 202.478 30.8857C202.013 30.471 201.78 29.9469 201.78 29.3135C201.78 28.5433 202.072 27.9463 202.655 27.5225C203.243 27.0941 204.068 26.8799 205.13 26.8799H206.36V26.2988C206.36 25.8568 206.228 25.5059 205.964 25.2461C205.7 24.9818 205.31 24.8496 204.795 24.8496C204.344 24.8496 203.965 24.9635 203.66 25.1914C203.355 25.4193 203.202 25.695 203.202 26.0186H201.931C201.931 25.6494 202.061 25.2939 202.32 24.9521C202.585 24.6058 202.94 24.3324 203.387 24.1318C203.838 23.9313 204.332 23.8311 204.87 23.8311C205.722 23.8311 206.39 24.0452 206.873 24.4736C207.356 24.8975 207.607 25.4831 207.625 26.2305V29.6348C207.625 30.3138 207.712 30.8538 207.885 31.2549V31.3643H206.559ZM204.46 30.4004C204.856 30.4004 205.232 30.2979 205.588 30.0928C205.943 29.8877 206.201 29.6211 206.36 29.293V27.7754H205.369C203.82 27.7754 203.045 28.2288 203.045 29.1357C203.045 29.5322 203.177 29.8421 203.441 30.0654C203.706 30.2887 204.045 30.4004 204.46 30.4004ZM215.855 27.748C215.855 28.8737 215.598 29.7806 215.083 30.4688C214.568 31.1569 213.871 31.501 212.991 31.501C212.093 31.501 211.387 31.2161 210.872 30.6465V34.208H209.607V23.9678H210.763L210.824 24.7881C211.339 24.1501 212.055 23.8311 212.971 23.8311C213.859 23.8311 214.561 24.166 215.076 24.8359C215.596 25.5059 215.855 26.4378 215.855 27.6318V27.748ZM214.591 27.6045C214.591 26.7705 214.413 26.112 214.058 25.6289C213.702 25.1458 213.215 24.9043 212.595 24.9043C211.829 24.9043 211.255 25.2438 210.872 25.9229V29.457C211.25 30.1315 211.829 30.4688 212.608 30.4688C213.215 30.4688 213.695 30.2295 214.051 29.751C214.411 29.2679 214.591 28.5524 214.591 27.6045ZM219.772 28.2129H218.85V31.3643H217.578V23.9678H218.85V27.0986H219.677L222.165 23.9678H223.696L220.771 27.5225L223.942 31.3643H222.336L219.772 28.2129ZM227.989 31.501C226.987 31.501 226.171 31.1729 225.542 30.5166C224.913 29.8558 224.599 28.974 224.599 27.8711V27.6387C224.599 26.9049 224.738 26.251 225.016 25.6768C225.298 25.098 225.69 24.6468 226.191 24.3232C226.697 23.9951 227.244 23.8311 227.832 23.8311C228.794 23.8311 229.541 24.1478 230.074 24.7812C230.607 25.4147 230.874 26.3216 230.874 27.502V28.0283H225.863C225.882 28.7575 226.093 29.3477 226.499 29.7988C226.909 30.2454 227.429 30.4688 228.058 30.4688C228.504 30.4688 228.882 30.3776 229.192 30.1953C229.502 30.013 229.773 29.7715 230.006 29.4707L230.778 30.0723C230.159 31.0247 229.229 31.501 227.989 31.501ZM227.832 24.8701C227.322 24.8701 226.893 25.057 226.547 25.4307C226.201 25.7998 225.986 26.3193 225.904 26.9893H229.609V26.8936C229.573 26.251 229.4 25.7542 229.09 25.4033C228.78 25.0479 228.361 24.8701 227.832 24.8701ZM237.758 24.9932H235.276V31.3643H234.012V24.9932H231.578V23.9678H237.758V24.9932ZM243.773 23.9678H245.038V31.3643H243.773V25.9707L240.362 31.3643H239.098V23.9678H240.362V29.3682L243.773 23.9678ZM253.111 31.3643H251.847V28.2061H248.449V31.3643H247.178V23.9678H248.449V27.1738H251.847V23.9678H253.111V31.3643ZM259.927 25.0137H256.516V31.3643H255.244V23.9678H259.927V25.0137ZM265.594 31.3643C265.521 31.2184 265.462 30.9587 265.416 30.585C264.828 31.1956 264.126 31.501 263.311 31.501C262.581 31.501 261.982 31.2959 261.513 30.8857C261.048 30.471 260.815 29.9469 260.815 29.3135C260.815 28.5433 261.107 27.9463 261.69 27.5225C262.278 27.0941 263.103 26.8799 264.165 26.8799H265.396V26.2988C265.396 25.8568 265.263 25.5059 264.999 25.2461C264.735 24.9818 264.345 24.8496 263.83 24.8496C263.379 24.8496 263.001 24.9635 262.695 25.1914C262.39 25.4193 262.237 25.695 262.237 26.0186H260.966C260.966 25.6494 261.096 25.2939 261.355 24.9521C261.62 24.6058 261.975 24.3324 262.422 24.1318C262.873 23.9313 263.368 23.8311 263.905 23.8311C264.757 23.8311 265.425 24.0452 265.908 24.4736C266.391 24.8975 266.642 25.4831 266.66 26.2305V29.6348C266.66 30.3138 266.747 30.8538 266.92 31.2549V31.3643H265.594ZM263.495 30.4004C263.892 30.4004 264.268 30.2979 264.623 30.0928C264.979 29.8877 265.236 29.6211 265.396 29.293V27.7754H264.404C262.855 27.7754 262.08 28.2288 262.08 29.1357C262.08 29.5322 262.212 29.8421 262.477 30.0654C262.741 30.2887 263.08 30.4004 263.495 30.4004Z" fill="#555555"/>
<path d="M14.6028 28.5827L10.8269 32.3633C7.21661 28.7516 3.60879 25.1375 0 21.5238C4.58183 16.9369 9.16317 12.3496 13.745 7.76221L14.6028 8.6206C10.3068 12.9218 6.01076 17.2231 1.71472 21.5238L10.8264 30.6465L13.7455 27.7243L14.6028 28.5827Z" fill="#555555"/>
<path d="M28.0465 15.1209C23.8511 19.3214 19.6557 23.5219 15.4598 27.7229L14.6024 26.864C18.6549 22.8066 22.7075 18.7492 26.7605 14.6917L17.6489 5.5686L15.4598 7.76033L14.6024 6.90193L17.6489 3.85132C21.2567 7.46641 24.8664 11.0781 28.4757 14.6917L28.0465 15.1209Z" fill="#555555"/>
<path d="M5.49041 17.7417L18.0655 30.3325L27.1772 21.2098L24.5711 18.6001L25.4289 17.7417L28.8919 21.2098L18.066 32.0498L4.63257 18.6006L5.49041 17.7417Z" fill="#555555"/>
<path d="M23.7148 17.7422L11.2441 5.25588L2.13251 14.3781L4.6346 16.8833L3.77675 17.7422L0.417786 14.3781L11.2441 3.53906L24.5726 16.8833L23.7148 17.7422Z" fill="#555555"/>
</svg>
