<svg width="43" height="43" viewBox="0 0 43 43" fill="none" xmlns="http://www.w3.org/2000/svg">
<path d="M31.4102 26.2031C33.0898 23.5604 34.0753 20.425 34.0753 17.0544C34.0753 7.63698 26.4495 0 17.0432 0C7.62578 0 0 7.63698 0 17.0544C0 26.4719 7.62578 34.1089 17.032 34.1089C20.4474 34.1089 23.6276 33.101 26.2927 31.3766L27.0654 30.8391L39.2263 43L43 39.1591L30.8503 26.9982L31.4102 26.2031ZM26.5839 7.525C29.1258 10.0669 30.5255 13.4487 30.5255 17.0432C30.5255 20.6378 29.1258 24.0195 26.5839 26.5615C24.0419 29.1034 20.6602 30.5031 17.0656 30.5031C13.4711 30.5031 10.0893 29.1034 7.54739 26.5615C5.00547 24.0195 3.60573 20.6378 3.60573 17.0432C3.60573 13.4487 5.00547 10.0669 7.54739 7.525C10.0893 4.98307 13.4711 3.58333 17.0656 3.58333C20.6602 3.58333 24.0419 4.98307 26.5839 7.525Z" fill="white"/>
</svg>
